# xmcd
#
# Track frame offsets:
#	182
#	17215
#	31295
#	49695
#	64220
#	79155
#	95190
#	110555
#	123310
#	136702
#	154320
#	167187
#	195220
#	211340
#	228915
#	246667
#
# Disc length: 3460 seconds
#
# Revision: 5
# Processed by: cddbd v1.5.2PL0 Copyright (c) Steve Scherf et al.
# Submitted via: audiograbber 1.83.01
#
DISCID=dd0d8210
DTITLE=Tränen lügen nicht - Diverse Interpreten - N3 prasentiert Die große Schl
DTITLE=ager-Nacht (LC 8637)
DYEAR=1995
DGENRE=Deutsch Schlager 70er
TTITLE0=Jürgen Markus - Eine neue Liebe ist wie ein neues Leben
TTITLE1=Costa Cordalis - Anita
TTITLE2=Su Kramer - Hier ist das Leben
TTITLE3=Daliah Lavi - Oh wann kommst Du
TTITLE4=Juliane Werding - Wenn du denkst Du denkst ...
TTITLE5=Joy Fleming - Ein Lied kann eine Brücke sein
TTITLE6=Benny - Du hast Angst vor der Wahrheit
TTITLE7=Bata Illic - Ich möcht der Knopf an deiner Bluse sein
TTITLE8=Silver Convention - Telegram
TTITLE9=Christian Anders - Denn ich liebe Dich so sehr
TTITLE10=Mary Roos - Hamburg im Regen
TTITLE11=Frank Schöbel - Wie ein Stern
TTITLE12=Michael Schanze - Es ist Morgen und ich liebe Dich noch immer
TTITLE13=Dieter Thomas Heck - Es ist Mitternacht John
TTITLE14=Michael Holm - Tränen lügen nicht
TTITLE15=Marion März and Bernd Begemann - Schau mal herein
EXTD=
EXTT0=
EXTT1=
EXTT2=
EXTT3=
EXTT4=
EXTT5=
EXTT6=
EXTT7=
EXTT8=
EXTT9=
EXTT10=
EXTT11=
EXTT12=
EXTT13=
EXTT14=
EXTT15=
PLAYORDER=
